<svg xmlns="http://www.w3.org/2000/svg" width="240" height="240" viewBox="0 0 240 240">
  <title>Tileable damask lace line art</title>
  <desc>Original half-drop palmette motif drawn in dusty-rose line art. Tiles seamlessly at 240x240.</desc>
  <defs>
    <g id="palmette" fill="none" stroke="#8f7373" stroke-width="1.15" stroke-linecap="round" stroke-linejoin="round">
      <path d="M0 0C7-22 7-44 0-62C-7-44-7-22 0 0Z"/>
      <g transform="rotate(32)">
        <path d="M0 0C5.5-19 5.5-38 0-54C-5.5-38-5.5-19 0 0Z"/>
      </g>
      <g transform="rotate(-32)">
        <path d="M0 0C5.5-19 5.5-38 0-54C-5.5-38-5.5-19 0 0Z"/>
      </g>
      <g transform="rotate(62)">
        <path d="M0 0C4.5-15 4.5-30 0-43C-4.5-30-4.5-15 0 0Z"/>
      </g>
      <g transform="rotate(-62)">
        <path d="M0 0C4.5-15 4.5-30 0-43C-4.5-30-4.5-15 0 0Z"/>
      </g>
      <path d="M0-6V-40" stroke-width="0.8"/>
      <circle cx="0" cy="-46" r="2.4" fill="#8f7373" stroke="none"/>
      <circle cx="0" cy="-20" r="9" stroke-width="0.7" stroke-dasharray="1 3.2"/>
      <circle cx="0" cy="-20" r="3.4" stroke-width="0.8"/>
      <path d="M0-2C15-8 25-22 21-35C18-45 8-48 3.5-42"/>
      <path d="M0-2C-15-8-25-22-21-35C-18-45-8-48-3.5-42"/>
      <path d="M21-35C26.5-38.5 31-34 28.6-29.2C26.6-25 21.4-26 19.8-29.6C18.9-31.8 19.6-33.7 21-35Z"/>
      <path d="M-21-35C-26.5-38.5-31-34-28.6-29.2C-26.6-25-21.4-26-19.8-29.6C-18.9-31.8-19.6-33.7-21-35Z"/>
      <path d="M-14 4C-10-4-4-4 0 2C4-4 10-4 14 4"/>
      <path d="M-9 8.5C-6 2.5 6 2.5 9 8.5"/>
      <circle cx="0" cy="-52" r="1.1" fill="#8f7373" stroke="none"/>
      <circle cx="0" cy="12" r="1.1" fill="#8f7373" stroke="none"/>
    </g>
  </defs>
  <g opacity="0.55">
    <use href="#palmette" transform="translate(120 95) scale(1.45)"/>
    <use href="#palmette" transform="translate(0 215) scale(1.45)"/>
    <use href="#palmette" transform="translate(240 215) scale(1.45)"/>
  </g>
</svg>
