<svg xmlns="http://www.w3.org/2000/svg" width="300" height="300" viewBox="0 0 300 300">
  <title>Ambient sparkle dots</title>
  <desc>Original scattered dot and sparkle layer, drawn in white for use as a low opacity CSS mask. Tiles seamlessly at 300x300.</desc>
  <g fill="#ffffff">
    <circle cx="40" cy="52" r="1.6"/>
    <circle cx="128" cy="24" r="1.1"/>
    <circle cx="214" cy="66" r="1.4"/>
    <circle cx="276" cy="140" r="1.1"/>
    <circle cx="168" cy="128" r="1.8"/>
    <circle cx="86" cy="150" r="1.2"/>
    <circle cx="18" cy="212" r="1.4"/>
    <circle cx="120" cy="248" r="1.1"/>
    <circle cx="196" cy="212" r="1.6"/>
    <circle cx="262" cy="266" r="1.2"/>
    <circle cx="52" cy="288" r="1.1"/>
    <circle cx="240" cy="18" r="1.3"/>
    <path d="M150 190l1.6 4.2 4.2 1.6-4.2 1.6-1.6 4.2-1.6-4.2-4.2-1.6 4.2-1.6z"/>
    <path d="M62 96l1.2 3.1 3.1 1.2-3.1 1.2-1.2 3.1-1.2-3.1-3.1-1.2 3.1-1.2z" opacity="0.8"/>
    <path d="M232 176l1.4 3.7 3.7 1.4-3.7 1.4-1.4 3.7-1.4-3.7-3.7-1.4 3.7-1.4z" opacity="0.85"/>
    <path d="M104 288l1.1 2.9 2.9 1.1-2.9 1.1-1.1 2.9-1.1-2.9-2.9-1.1 2.9-1.1z" opacity="0.75"/>
  </g>
</svg>
